<svg xmlns="http://www.w3.org/2000/svg" xmlns:xlink="http://www.w3.org/1999/xlink" width="300" zoomAndPan="magnify" viewBox="0 0 224.87999 225" height="300" preserveAspectRatio="xMidYMid meet" version="1.0"><defs><g/><clipPath id="905bb39963"><rect x="0" width="141" y="0" height="22"/></clipPath><clipPath id="fb2d240c4a"><rect x="0" width="55" y="0" height="8"/></clipPath><clipPath id="37712a8031"><path d="M 108.460938 54.4375 L 164.492188 54.4375 L 164.492188 80.1875 L 108.460938 80.1875 Z M 108.460938 54.4375 " clip-rule="nonzero"/></clipPath><clipPath id="7d164ab7ca"><path d="M 138.90625 65.296875 C 138.597656 67.230469 138.722656 69.261719 139.363281 71.253906 C 141.535156 78.003906 148.769531 81.714844 155.523438 79.542969 C 162.277344 77.371094 165.992188 70.140625 163.820312 63.390625 C 161.648438 56.644531 154.410156 52.933594 147.65625 55.101562 C 143.613281 56.402344 140.660156 59.519531 139.410156 63.253906 C 134.222656 63.484375 128.78125 64.828125 124.511719 66.171875 C 122.660156 62.546875 118.40625 60.695312 114.40625 61.980469 C 109.964844 63.410156 107.523438 68.164062 108.953125 72.601562 C 110.378906 77.039062 115.136719 79.476562 119.578125 78.050781 C 123.800781 76.695312 126.214844 72.328125 125.210938 68.085938 C 129.195312 66.84375 134.183594 65.597656 138.90625 65.296875 Z M 138.90625 65.296875 " clip-rule="nonzero"/></clipPath><clipPath id="05a8b97eda"><path d="M 138.90625 65.296875 C 138.597656 67.230469 138.722656 69.261719 139.363281 71.253906 C 141.535156 78.003906 148.769531 81.714844 155.523438 79.542969 C 162.277344 77.371094 165.992188 70.140625 163.820312 63.390625 C 161.648438 56.644531 154.410156 52.933594 147.65625 55.101562 C 143.613281 56.402344 140.660156 59.519531 139.410156 63.253906 C 134.222656 63.484375 128.78125 64.828125 124.511719 66.171875 C 122.660156 62.546875 118.40625 60.695312 114.40625 61.980469 C 109.964844 63.410156 107.523438 68.164062 108.953125 72.601562 C 110.378906 77.039062 115.136719 79.476562 119.578125 78.050781 C 123.800781 76.695312 126.214844 72.328125 125.210938 68.085938 C 129.195312 66.84375 134.183594 65.597656 138.90625 65.296875 " clip-rule="nonzero"/></clipPath><clipPath id="00425f6604"><path d="M 107.542969 51.878906 L 107.003906 81.707031 L 165.972656 82.765625 L 166.511719 52.941406 Z M 107.542969 51.878906 " clip-rule="nonzero"/></clipPath><radialGradient gradientTransform="matrix(1.000189, 0.0179871, -0.0179997, 0.999488, 42.383449, 93.826927)" gradientUnits="userSpaceOnUse" r="103.373349" cx="0" id="7158333edc" cy="0" fx="0" fy="0"><stop stop-opacity="1" stop-color="rgb(88.438416%, 11.759949%, 58.039856%)" offset="0"/><stop stop-opacity="1" stop-color="rgb(88.052368%, 11.759949%, 58.039856%)" offset="0.00390625"/><stop stop-opacity="1" stop-color="rgb(87.8479%, 11.94458%, 58.039856%)" offset="0.0078125"/><stop stop-opacity="1" stop-color="rgb(87.661743%, 12.14447%, 58.039856%)" offset="0.0117188"/><stop stop-opacity="1" stop-color="rgb(87.295532%, 12.159729%, 58.039856%)" offset="0.015625"/><stop stop-opacity="1" stop-color="rgb(87.060547%, 12.159729%, 58.039856%)" offset="0.0195312"/><stop stop-opacity="1" stop-color="rgb(86.825562%, 12.159729%, 58.039856%)" offset="0.0234375"/><stop stop-opacity="1" stop-color="rgb(86.439514%, 12.159729%, 58.039856%)" offset="0.0273438"/><stop stop-opacity="1" stop-color="rgb(86.061096%, 12.159729%, 58.032227%)" offset="0.03125"/><stop stop-opacity="1" stop-color="rgb(85.876465%, 12.159729%, 57.836914%)" offset="0.0351562"/><stop stop-opacity="1" stop-color="rgb(85.682678%, 12.159729%, 57.649231%)" offset="0.0390625"/><stop stop-opacity="1" stop-color="rgb(85.301208%, 12.159729%, 57.649231%)" offset="0.0429688"/><stop stop-opacity="1" stop-color="rgb(85.105896%, 12.159729%, 57.649231%)" offset="0.046875"/><stop stop-opacity="1" stop-color="rgb(84.919739%, 12.159729%, 57.649231%)" offset="0.0507812"/><stop stop-opacity="1" stop-color="rgb(84.544373%, 12.159729%, 57.649231%)" offset="0.0546875"/><stop stop-opacity="1" stop-color="rgb(84.329224%, 12.159729%, 57.649231%)" offset="0.0585938"/><stop stop-opacity="1" stop-color="rgb(84.094238%, 12.179565%, 57.649231%)" offset="0.0625"/><stop stop-opacity="1" stop-color="rgb(83.688354%, 12.373352%, 57.649231%)" offset="0.0664062"/><stop stop-opacity="1" stop-color="rgb(83.319092%, 12.548828%, 57.649231%)" offset="0.0703125"/><stop stop-opacity="1" stop-color="rgb(83.132935%, 12.548828%, 57.649231%)" offset="0.0742188"/><stop stop-opacity="1" stop-color="rgb(82.936096%, 12.548828%, 57.649231%)" offset="0.078125"/><stop stop-opacity="1" stop-color="rgb(82.550049%, 12.548828%, 57.649231%)" offset="0.0820312"/><stop stop-opacity="1" stop-color="rgb(82.351685%, 12.548828%, 57.649231%)" offset="0.0859375"/><stop stop-opacity="1" stop-color="rgb(82.165527%, 12.548828%, 57.649231%)" offset="0.0898438"/><stop stop-opacity="1" stop-color="rgb(81.793213%, 12.548828%, 57.649231%)" offset="0.09375"/><stop stop-opacity="1" stop-color="rgb(81.585693%, 12.548828%, 57.649231%)" offset="0.0976562"/><stop stop-opacity="1" stop-color="rgb(81.350708%, 12.548828%, 57.649231%)" offset="0.101562"/><stop stop-opacity="1" stop-color="rgb(80.937195%, 12.548828%, 57.649231%)" offset="0.105469"/><stop stop-opacity="1" stop-color="rgb(80.566406%, 12.548828%, 57.649231%)" offset="0.109375"/><stop stop-opacity="1" stop-color="rgb(80.380249%, 12.548828%, 57.649231%)" offset="0.113281"/><stop stop-opacity="1" stop-color="rgb(80.180359%, 12.553406%, 57.649231%)" offset="0.117188"/><stop stop-opacity="1" stop-color="rgb(79.798889%, 12.748718%, 57.649231%)" offset="0.121094"/><stop stop-opacity="1" stop-color="rgb(79.60968%, 12.939453%, 57.649231%)" offset="0.125"/><stop stop-opacity="1" stop-color="rgb(79.423523%, 12.939453%, 57.649231%)" offset="0.128906"/><stop stop-opacity="1" stop-color="rgb(79.042053%, 12.939453%, 57.649231%)" offset="0.132812"/><stop stop-opacity="1" stop-color="rgb(78.656006%, 12.939453%, 57.649231%)" offset="0.136719"/><stop stop-opacity="1" stop-color="rgb(78.44696%, 12.939453%, 57.649231%)" offset="0.140625"/><stop stop-opacity="1" stop-color="rgb(78.211975%, 12.939453%, 57.649231%)" offset="0.144531"/><stop stop-opacity="1" stop-color="rgb(77.822876%, 12.939453%, 57.649231%)" offset="0.148438"/><stop stop-opacity="1" stop-color="rgb(77.636719%, 12.939453%, 57.649231%)" offset="0.152344"/><stop stop-opacity="1" stop-color="rgb(77.429199%, 12.939453%, 57.649231%)" offset="0.15625"/><stop stop-opacity="1" stop-color="rgb(77.043152%, 12.939453%, 57.649231%)" offset="0.160156"/><stop stop-opacity="1" stop-color="rgb(76.661682%, 12.939453%, 57.649231%)" offset="0.164062"/><stop stop-opacity="1" stop-color="rgb(76.470947%, 12.939453%, 57.649231%)" offset="0.167969"/><stop stop-opacity="1" stop-color="rgb(76.28479%, 12.939453%, 57.649231%)" offset="0.171875"/><stop stop-opacity="1" stop-color="rgb(75.909424%, 13.117981%, 57.649231%)" offset="0.175781"/><stop stop-opacity="1" stop-color="rgb(75.704956%, 13.313293%, 57.649231%)" offset="0.179688"/><stop stop-opacity="1" stop-color="rgb(75.514221%, 13.328552%, 57.649231%)" offset="0.183594"/><stop stop-opacity="1" stop-color="rgb(75.119019%, 13.328552%, 57.649231%)" offset="0.1875"/><stop stop-opacity="1" stop-color="rgb(74.884033%, 13.328552%, 57.649231%)" offset="0.191406"/><stop stop-opacity="1" stop-color="rgb(74.67804%, 13.328552%, 57.649231%)" offset="0.195312"/><stop stop-opacity="1" stop-color="rgb(74.29657%, 13.328552%, 57.649231%)" offset="0.199219"/><stop stop-opacity="1" stop-color="rgb(73.918152%, 13.328552%, 57.649231%)" offset="0.203125"/><stop stop-opacity="1" stop-color="rgb(73.728943%, 13.328552%, 57.649231%)" offset="0.207031"/><stop stop-opacity="1" stop-color="rgb(73.536682%, 13.328552%, 57.649231%)" offset="0.210938"/><stop stop-opacity="1" stop-color="rgb(73.153687%, 13.328552%, 57.649231%)" offset="0.214844"/><stop stop-opacity="1" stop-color="rgb(72.950745%, 13.328552%, 57.649231%)" offset="0.21875"/><stop stop-opacity="1" stop-color="rgb(72.764587%, 13.328552%, 57.649231%)" offset="0.222656"/><stop stop-opacity="1" stop-color="rgb(72.3526%, 13.528442%, 57.649231%)" offset="0.226562"/><stop stop-opacity="1" stop-color="rgb(71.936035%, 13.729858%, 57.649231%)" offset="0.230469"/><stop stop-opacity="1" stop-color="rgb(71.7453%, 13.729858%, 57.649231%)" offset="0.234375"/><stop stop-opacity="1" stop-color="rgb(71.540833%, 13.729858%, 57.649231%)" offset="0.238281"/><stop stop-opacity="1" stop-color="rgb(71.165466%, 13.729858%, 57.649231%)" offset="0.242188"/><stop stop-opacity="1" stop-color="rgb(70.979309%, 13.729858%, 57.649231%)" offset="0.246094"/><stop stop-opacity="1" stop-color="rgb(70.788574%, 13.729858%, 57.649231%)" offset="0.25"/><stop stop-opacity="1" stop-color="rgb(70.407104%, 13.729858%, 57.649231%)" offset="0.253906"/><stop stop-opacity="1" stop-color="rgb(70.027161%, 13.729858%, 57.649231%)" offset="0.257812"/><stop stop-opacity="1" stop-color="rgb(69.645691%, 13.729858%, 57.649231%)" offset="0.265625"/><stop stop-opacity="1" stop-color="rgb(69.236755%, 13.729858%, 57.649231%)" offset="0.269531"/><stop stop-opacity="1" stop-color="rgb(69.00177%, 13.746643%, 57.649231%)" offset="0.273438"/><stop stop-opacity="1" stop-color="rgb(68.79425%, 13.94043%, 57.649231%)" offset="0.277344"/><stop stop-opacity="1" stop-color="rgb(68.418884%, 14.118958%, 57.649231%)" offset="0.28125"/><stop stop-opacity="1" stop-color="rgb(68.037415%, 14.118958%, 57.649231%)" offset="0.289062"/><stop stop-opacity="1" stop-color="rgb(67.651367%, 14.118958%, 57.649231%)" offset="0.292969"/><stop stop-opacity="1" stop-color="rgb(67.271423%, 14.118958%, 57.649231%)" offset="0.296875"/><stop stop-opacity="1" stop-color="rgb(66.894531%, 14.118958%, 57.649231%)" offset="0.300781"/><stop stop-opacity="1" stop-color="rgb(66.513062%, 14.118958%, 57.649231%)" offset="0.308594"/><stop stop-opacity="1" stop-color="rgb(66.273499%, 14.118958%, 57.649231%)" offset="0.3125"/><stop stop-opacity="1" stop-color="rgb(66.038513%, 14.134216%, 57.649231%)" offset="0.316406"/><stop stop-opacity="1" stop-color="rgb(65.658569%, 14.329529%, 57.649231%)" offset="0.320312"/><stop stop-opacity="1" stop-color="rgb(65.281677%, 14.509583%, 57.649231%)" offset="0.324219"/><stop stop-opacity="1" stop-color="rgb(64.904785%, 14.509583%, 57.649231%)" offset="0.332031"/><stop stop-opacity="1" stop-color="rgb(64.520264%, 14.509583%, 57.649231%)" offset="0.335938"/><stop stop-opacity="1" stop-color="rgb(64.138794%, 14.509583%, 57.649231%)" offset="0.339844"/><stop stop-opacity="1" stop-color="rgb(63.761902%, 14.509583%, 57.649231%)" offset="0.347656"/><stop stop-opacity="1" stop-color="rgb(63.526917%, 14.509583%, 57.449341%)" offset="0.351562"/><stop stop-opacity="1" stop-color="rgb(63.293457%, 14.509583%, 57.249451%)" offset="0.355469"/><stop stop-opacity="1" stop-color="rgb(62.911987%, 14.509583%, 57.249451%)" offset="0.359375"/><stop stop-opacity="1" stop-color="rgb(62.530518%, 14.703369%, 57.249451%)" offset="0.363281"/><stop stop-opacity="1" stop-color="rgb(62.149048%, 14.898682%, 57.249451%)" offset="0.371094"/><stop stop-opacity="1" stop-color="rgb(61.764526%, 14.898682%, 57.249451%)" offset="0.375"/><stop stop-opacity="1" stop-color="rgb(61.387634%, 14.898682%, 57.249451%)" offset="0.382812"/><stop stop-opacity="1" stop-color="rgb(61.010742%, 14.898682%, 57.249451%)" offset="0.386719"/><stop stop-opacity="1" stop-color="rgb(60.626221%, 14.898682%, 57.249451%)" offset="0.390625"/><stop stop-opacity="1" stop-color="rgb(60.391235%, 14.898682%, 57.249451%)" offset="0.394531"/><stop stop-opacity="1" stop-color="rgb(60.15625%, 14.898682%, 57.249451%)" offset="0.398438"/><stop stop-opacity="1" stop-color="rgb(59.779358%, 14.906311%, 57.249451%)" offset="0.402344"/><stop stop-opacity="1" stop-color="rgb(59.403992%, 15.101624%, 57.249451%)" offset="0.410156"/><stop stop-opacity="1" stop-color="rgb(59.017944%, 15.289307%, 57.249451%)" offset="0.414062"/><stop stop-opacity="1" stop-color="rgb(58.631897%, 15.289307%, 57.249451%)" offset="0.417969"/><stop stop-opacity="1" stop-color="rgb(58.255005%, 15.289307%, 57.249451%)" offset="0.421875"/><stop stop-opacity="1" stop-color="rgb(57.879639%, 15.289307%, 57.249451%)" offset="0.429688"/><stop stop-opacity="1" stop-color="rgb(57.669067%, 15.289307%, 57.249451%)" offset="0.433594"/><stop stop-opacity="1" stop-color="rgb(57.429504%, 15.289307%, 57.249451%)" offset="0.4375"/><stop stop-opacity="1" stop-color="rgb(57.019043%, 15.289307%, 57.249451%)" offset="0.441406"/><stop stop-opacity="1" stop-color="rgb(56.642151%, 15.29541%, 57.249451%)" offset="0.445312"/><stop stop-opacity="1" stop-color="rgb(56.266785%, 15.4953%, 57.249451%)" offset="0.453125"/><stop stop-opacity="1" stop-color="rgb(55.882263%, 15.689087%, 57.249451%)" offset="0.457031"/><stop stop-opacity="1" stop-color="rgb(55.500793%, 15.689087%, 57.249451%)" offset="0.464844"/><stop stop-opacity="1" stop-color="rgb(55.123901%, 15.689087%, 57.249451%)" offset="0.46875"/><stop stop-opacity="1" stop-color="rgb(54.742432%, 15.689087%, 57.249451%)" offset="0.472656"/><stop stop-opacity="1" stop-color="rgb(54.507446%, 15.689087%, 57.249451%)" offset="0.476562"/><stop stop-opacity="1" stop-color="rgb(54.272461%, 15.689087%, 57.249451%)" offset="0.480469"/><stop stop-opacity="1" stop-color="rgb(53.897095%, 15.698242%, 57.249451%)" offset="0.484375"/><stop stop-opacity="1" stop-color="rgb(53.515625%, 15.893555%, 57.249451%)" offset="0.492188"/><stop stop-opacity="1" stop-color="rgb(53.129578%, 16.079712%, 57.249451%)" offset="0.496094"/><stop stop-opacity="1" stop-color="rgb(52.752686%, 16.079712%, 57.249451%)" offset="0.503906"/><stop stop-opacity="1" stop-color="rgb(52.377319%, 16.079712%, 57.249451%)" offset="0.507812"/><stop stop-opacity="1" stop-color="rgb(51.991272%, 16.079712%, 57.249451%)" offset="0.511719"/><stop stop-opacity="1" stop-color="rgb(51.777649%, 16.079712%, 57.249451%)" offset="0.515625"/><stop stop-opacity="1" stop-color="rgb(51.542664%, 16.079712%, 57.249451%)" offset="0.519531"/><stop stop-opacity="1" stop-color="rgb(51.152039%, 16.079712%, 57.249451%)" offset="0.523438"/><stop stop-opacity="1" stop-color="rgb(50.967407%, 16.091919%, 57.249451%)" offset="0.527344"/><stop stop-opacity="1" stop-color="rgb(50.764465%, 16.285706%, 57.249451%)" offset="0.53125"/><stop stop-opacity="1" stop-color="rgb(50.382996%, 16.468811%, 57.249451%)" offset="0.535156"/><stop stop-opacity="1" stop-color="rgb(49.996948%, 16.468811%, 57.249451%)" offset="0.539062"/><stop stop-opacity="1" stop-color="rgb(49.80011%, 16.468811%, 57.249451%)" offset="0.542969"/><stop stop-opacity="1" stop-color="rgb(49.613953%, 16.468811%, 57.249451%)" offset="0.546875"/><stop stop-opacity="1" stop-color="rgb(49.240112%, 16.468811%, 57.249451%)" offset="0.550781"/><stop stop-opacity="1" stop-color="rgb(49.034119%, 16.468811%, 57.249451%)" offset="0.554688"/><stop stop-opacity="1" stop-color="rgb(48.847961%, 16.468811%, 57.249451%)" offset="0.558594"/><stop stop-opacity="1" stop-color="rgb(48.4375%, 16.468811%, 57.249451%)" offset="0.5625"/><stop stop-opacity="1" stop-color="rgb(48.017883%, 16.48407%, 57.249451%)" offset="0.566406"/><stop stop-opacity="1" stop-color="rgb(47.828674%, 16.679382%, 57.249451%)" offset="0.570312"/><stop stop-opacity="1" stop-color="rgb(47.627258%, 16.859436%, 57.249451%)" offset="0.574219"/><stop stop-opacity="1" stop-color="rgb(47.247314%, 16.859436%, 57.249451%)" offset="0.578125"/><stop stop-opacity="1" stop-color="rgb(47.059631%, 16.859436%, 57.249451%)" offset="0.582031"/><stop stop-opacity="1" stop-color="rgb(46.871948%, 16.859436%, 57.249451%)" offset="0.585938"/><stop stop-opacity="1" stop-color="rgb(46.488953%, 16.859436%, 57.249451%)" offset="0.589844"/><stop stop-opacity="1" stop-color="rgb(46.102905%, 16.859436%, 57.249451%)" offset="0.59375"/><stop stop-opacity="1" stop-color="rgb(45.895386%, 16.859436%, 57.249451%)" offset="0.597656"/><stop stop-opacity="1" stop-color="rgb(45.6604%, 16.859436%, 57.249451%)" offset="0.601562"/><stop stop-opacity="1" stop-color="rgb(45.271301%, 16.877747%, 57.249451%)" offset="0.605469"/><stop stop-opacity="1" stop-color="rgb(45.085144%, 17.071533%, 57.249451%)" offset="0.609375"/><stop stop-opacity="1" stop-color="rgb(44.880676%, 17.248535%, 57.249451%)" offset="0.613281"/><stop stop-opacity="1" stop-color="rgb(44.494629%, 17.248535%, 57.249451%)" offset="0.617188"/><stop stop-opacity="1" stop-color="rgb(44.110107%, 17.248535%, 57.249451%)" offset="0.621094"/><stop stop-opacity="1" stop-color="rgb(43.919373%, 17.248535%, 57.249451%)" offset="0.625"/><stop stop-opacity="1" stop-color="rgb(43.733215%, 17.248535%, 57.249451%)" offset="0.628906"/><stop stop-opacity="1" stop-color="rgb(43.356323%, 17.248535%, 57.249451%)" offset="0.632812"/><stop stop-opacity="1" stop-color="rgb(42.980957%, 17.248535%, 57.249451%)" offset="0.636719"/><stop stop-opacity="1" stop-color="rgb(42.550659%, 17.448425%, 57.249451%)" offset="0.644531"/><stop stop-opacity="1" stop-color="rgb(42.120361%, 17.649841%, 57.249451%)" offset="0.648438"/><stop stop-opacity="1" stop-color="rgb(41.743469%, 17.649841%, 57.249451%)" offset="0.65625"/><stop stop-opacity="1" stop-color="rgb(41.366577%, 17.649841%, 57.249451%)" offset="0.660156"/><stop stop-opacity="1" stop-color="rgb(40.985107%, 17.649841%, 57.249451%)" offset="0.667969"/><stop stop-opacity="1" stop-color="rgb(40.600586%, 17.649841%, 57.249451%)" offset="0.671875"/><stop stop-opacity="1" stop-color="rgb(40.219116%, 17.649841%, 57.249451%)" offset="0.675781"/><stop stop-opacity="1" stop-color="rgb(39.84375%, 17.843628%, 57.249451%)" offset="0.679688"/><stop stop-opacity="1" stop-color="rgb(39.437866%, 18.03894%, 57.249451%)" offset="0.6875"/><stop stop-opacity="1" stop-color="rgb(39.202881%, 18.03894%, 57.249451%)" offset="0.691406"/><stop stop-opacity="1" stop-color="rgb(38.99231%, 18.03894%, 57.249451%)" offset="0.695312"/><stop stop-opacity="1" stop-color="rgb(38.607788%, 18.03894%, 57.249451%)" offset="0.699219"/><stop stop-opacity="1" stop-color="rgb(38.227844%, 18.03894%, 57.249451%)" offset="0.703125"/><stop stop-opacity="1" stop-color="rgb(37.850952%, 18.03894%, 57.249451%)" offset="0.710938"/><stop stop-opacity="1" stop-color="rgb(37.469482%, 18.222046%, 57.249451%)" offset="0.714844"/><stop stop-opacity="1" stop-color="rgb(37.088013%, 18.417358%, 57.249451%)" offset="0.71875"/><stop stop-opacity="1" stop-color="rgb(36.662292%, 18.429565%, 57.249451%)" offset="0.726562"/><stop stop-opacity="1" stop-color="rgb(36.238098%, 18.429565%, 57.249451%)" offset="0.730469"/><stop stop-opacity="1" stop-color="rgb(35.861206%, 18.429565%, 57.249451%)" offset="0.738281"/><stop stop-opacity="1" stop-color="rgb(35.479736%, 18.429565%, 57.249451%)" offset="0.742188"/><stop stop-opacity="1" stop-color="rgb(35.098267%, 18.618774%, 57.249451%)" offset="0.75"/><stop stop-opacity="1" stop-color="rgb(34.718323%, 18.814087%, 57.249451%)" offset="0.753906"/><stop stop-opacity="1" stop-color="rgb(34.336853%, 18.818665%, 57.249451%)" offset="0.757812"/><stop stop-opacity="1" stop-color="rgb(34.132385%, 18.818665%, 57.249451%)" offset="0.761719"/><stop stop-opacity="1" stop-color="rgb(33.946228%, 18.818665%, 57.249451%)" offset="0.765625"/><stop stop-opacity="1" stop-color="rgb(33.552551%, 18.818665%, 57.249451%)" offset="0.769531"/><stop stop-opacity="1" stop-color="rgb(33.312988%, 18.818665%, 57.249451%)" offset="0.773438"/><stop stop-opacity="1" stop-color="rgb(33.105469%, 18.830872%, 57.249451%)" offset="0.777344"/><stop stop-opacity="1" stop-color="rgb(32.723999%, 19.032288%, 57.249451%)" offset="0.78125"/><stop stop-opacity="1" stop-color="rgb(32.345581%, 19.219971%, 57.249451%)" offset="0.785156"/><stop stop-opacity="1" stop-color="rgb(32.159424%, 19.219971%, 57.249451%)" offset="0.789062"/><stop stop-opacity="1" stop-color="rgb(31.965637%, 19.219971%, 57.249451%)" offset="0.792969"/><stop stop-opacity="1" stop-color="rgb(31.581116%, 19.219971%, 57.249451%)" offset="0.796875"/><stop stop-opacity="1" stop-color="rgb(31.3797%, 19.219971%, 57.249451%)" offset="0.800781"/><stop stop-opacity="1" stop-color="rgb(31.193542%, 19.219971%, 57.249451%)" offset="0.804688"/><stop stop-opacity="1" stop-color="rgb(30.828857%, 19.219971%, 57.249451%)" offset="0.808594"/><stop stop-opacity="1" stop-color="rgb(30.418396%, 19.238281%, 57.249451%)" offset="0.8125"/><stop stop-opacity="1" stop-color="rgb(30.183411%, 19.433594%, 57.249451%)" offset="0.816406"/><stop stop-opacity="1" stop-color="rgb(29.972839%, 19.60907%, 57.249451%)" offset="0.820312"/><stop stop-opacity="1" stop-color="rgb(29.59137%, 19.60907%, 57.249451%)" offset="0.824219"/><stop stop-opacity="1" stop-color="rgb(29.216003%, 19.60907%, 57.249451%)" offset="0.832031"/><stop stop-opacity="1" stop-color="rgb(28.834534%, 19.60907%, 57.249451%)" offset="0.835938"/><stop stop-opacity="1" stop-color="rgb(28.453064%, 19.60907%, 57.249451%)" offset="0.839844"/><stop stop-opacity="1" stop-color="rgb(28.07312%, 19.78302%, 57.249451%)" offset="0.84375"/><stop stop-opacity="1" stop-color="rgb(27.66571%, 19.978333%, 57.249451%)" offset="0.851562"/><stop stop-opacity="1" stop-color="rgb(27.430725%, 19.999695%, 57.249451%)" offset="0.855469"/><stop stop-opacity="1" stop-color="rgb(27.22168%, 19.999695%, 57.249451%)" offset="0.859375"/><stop stop-opacity="1" stop-color="rgb(26.841736%, 19.999695%, 57.249451%)" offset="0.863281"/><stop stop-opacity="1" stop-color="rgb(26.460266%, 19.999695%, 57.249451%)" offset="0.867188"/><stop stop-opacity="1" stop-color="rgb(26.078796%, 19.999695%, 57.249451%)" offset="0.875"/><stop stop-opacity="1" stop-color="rgb(25.697327%, 20.184326%, 57.249451%)" offset="0.878906"/><stop stop-opacity="1" stop-color="rgb(25.498962%, 20.379639%, 57.249451%)" offset="0.882812"/><stop stop-opacity="1" stop-color="rgb(25.312805%, 20.388794%, 57.249451%)" offset="0.886719"/><stop stop-opacity="1" stop-color="rgb(24.945068%, 20.388794%, 57.249451%)" offset="0.890625"/><stop stop-opacity="1" stop-color="rgb(24.531555%, 20.388794%, 57.249451%)" offset="0.894531"/><stop stop-opacity="1" stop-color="rgb(24.291992%, 20.388794%, 57.249451%)" offset="0.898438"/><stop stop-opacity="1" stop-color="rgb(24.084473%, 20.388794%, 57.249451%)" offset="0.902344"/><stop stop-opacity="1" stop-color="rgb(23.712158%, 20.396423%, 57.249451%)" offset="0.90625"/><stop stop-opacity="1" stop-color="rgb(23.335266%, 20.591736%, 57.249451%)" offset="0.910156"/><stop stop-opacity="1" stop-color="rgb(22.952271%, 20.779419%, 57.249451%)" offset="0.917969"/><stop stop-opacity="1" stop-color="rgb(22.566223%, 20.779419%, 57.249451%)" offset="0.921875"/><stop stop-opacity="1" stop-color="rgb(22.184753%, 20.779419%, 57.249451%)" offset="0.925781"/><stop stop-opacity="1" stop-color="rgb(21.807861%, 20.779419%, 57.249451%)" offset="0.933594"/><stop stop-opacity="1" stop-color="rgb(21.398926%, 20.979309%, 57.249451%)" offset="0.9375"/><stop stop-opacity="1" stop-color="rgb(21.16394%, 21.179199%, 57.249451%)" offset="0.941406"/><stop stop-opacity="1" stop-color="rgb(20.953369%, 21.179199%, 57.249451%)" offset="0.945312"/><stop stop-opacity="1" stop-color="rgb(20.573425%, 21.179199%, 57.249451%)" offset="0.949219"/><stop stop-opacity="1" stop-color="rgb(20.387268%, 21.179199%, 57.249451%)" offset="0.953125"/><stop stop-opacity="1" stop-color="rgb(20.195007%, 21.179199%, 57.249451%)" offset="0.957031"/><stop stop-opacity="1" stop-color="rgb(19.815063%, 21.179199%, 57.249451%)" offset="0.960938"/><stop stop-opacity="1" stop-color="rgb(19.433594%, 21.179199%, 57.249451%)" offset="0.964844"/><stop stop-opacity="1" stop-color="rgb(19.052124%, 21.374512%, 57.249451%)" offset="0.96875"/><stop stop-opacity="1" stop-color="rgb(18.64624%, 21.569824%, 57.249451%)" offset="0.976562"/><stop stop-opacity="1" stop-color="rgb(18.411255%, 21.569824%, 57.249451%)" offset="0.980469"/><stop stop-opacity="1" stop-color="rgb(18.202209%, 21.569824%, 57.249451%)" offset="0.984375"/><stop stop-opacity="1" stop-color="rgb(17.82074%, 21.569824%, 57.249451%)" offset="0.988281"/><stop stop-opacity="1" stop-color="rgb(17.43927%, 21.569824%, 57.249451%)" offset="0.992188"/><stop stop-opacity="1" stop-color="rgb(17.248535%, 21.569824%, 57.249451%)" offset="1"/></radialGradient><clipPath id="f16d59b806"><path d="M 124.285156 75.867188 L 165.269531 75.867188 L 165.269531 125.808594 L 124.285156 125.808594 Z M 124.285156 75.867188 " clip-rule="nonzero"/></clipPath><clipPath id="8de08df5f4"><path d="M 147.785156 100.964844 C 145.957031 101.660156 144.257812 102.785156 142.851562 104.335938 C 138.089844 109.589844 138.492188 117.707031 143.75 122.46875 C 149.007812 127.226562 157.128906 126.824219 161.894531 121.570312 C 166.65625 116.316406 166.253906 108.199219 160.996094 103.4375 C 157.847656 100.589844 153.671875 99.59375 149.808594 100.375 C 147.015625 96.003906 143.132812 91.96875 139.832031 88.941406 C 142.046875 85.527344 141.523438 80.917969 138.410156 78.101562 C 134.953125 74.972656 129.609375 75.238281 126.480469 78.691406 C 123.347656 82.148438 123.613281 87.484375 127.070312 90.613281 C 130.355469 93.589844 135.347656 93.496094 138.523438 90.507812 C 141.589844 93.332031 145.164062 97.027344 147.785156 100.964844 Z M 147.785156 100.964844 " clip-rule="nonzero"/></clipPath><clipPath id="22792f8113"><path d="M 147.785156 100.964844 C 145.957031 101.660156 144.257812 102.785156 142.851562 104.335938 C 138.089844 109.589844 138.492188 117.707031 143.75 122.46875 C 149.007812 127.226562 157.128906 126.824219 161.894531 121.570312 C 166.65625 116.316406 166.253906 108.199219 160.996094 103.4375 C 157.847656 100.589844 153.671875 99.59375 149.808594 100.375 C 147.015625 96.003906 143.132812 91.96875 139.832031 88.941406 C 142.046875 85.527344 141.523438 80.917969 138.410156 78.101562 C 134.953125 74.972656 129.609375 75.238281 126.480469 78.691406 C 123.347656 82.148438 123.613281 87.484375 127.070312 90.613281 C 130.355469 93.589844 135.347656 93.496094 138.523438 90.507812 C 141.589844 93.332031 145.164062 97.027344 147.785156 100.964844 " clip-rule="nonzero"/></clipPath><clipPath id="314a367ea3"><path d="M 123.359375 74.191406 L 122.40625 127.210938 L 166.640625 128.007812 L 167.597656 74.988281 Z M 123.359375 74.191406 " clip-rule="nonzero"/></clipPath><clipPath id="249891ce13"><path d="M 100.332031 96.691406 L 136.648438 96.691406 L 136.648438 149.277344 L 100.332031 149.277344 Z M 100.332031 96.691406 " clip-rule="nonzero"/></clipPath><clipPath id="031a5a7beb"><path d="M 121.316406 126.480469 C 119.796875 125.246094 117.972656 124.335938 115.925781 123.894531 C 108.992188 122.402344 102.15625 126.808594 100.660156 133.738281 C 99.164062 140.667969 103.574219 147.5 110.511719 148.992188 C 117.445312 150.488281 124.28125 146.078125 125.773438 139.148438 C 126.671875 135 125.449219 130.890625 122.835938 127.9375 C 125.226562 123.335938 126.785156 117.953125 127.757812 113.585938 C 131.820312 113.796875 135.554688 111.039062 136.441406 106.933594 C 137.425781 102.378906 134.523438 97.886719 129.964844 96.90625 C 125.402344 95.921875 120.910156 98.820312 119.925781 103.375 C 118.992188 107.710938 121.570312 111.980469 125.746094 113.234375 C 124.832031 117.304688 123.417969 122.242188 121.316406 126.480469 Z M 121.316406 126.480469 " clip-rule="nonzero"/></clipPath><clipPath id="9da076febd"><path d="M 121.316406 126.480469 C 119.796875 125.246094 117.972656 124.335938 115.925781 123.894531 C 108.992188 122.402344 102.15625 126.808594 100.660156 133.738281 C 99.164062 140.667969 103.574219 147.5 110.511719 148.992188 C 117.445312 150.488281 124.28125 146.078125 125.773438 139.148438 C 126.671875 135 125.449219 130.890625 122.835938 127.9375 C 125.226562 123.335938 126.785156 117.953125 127.757812 113.585938 C 131.820312 113.796875 135.554688 111.039062 136.441406 106.933594 C 137.425781 102.378906 134.523438 97.886719 129.964844 96.90625 C 125.402344 95.921875 120.910156 98.820312 119.925781 103.375 C 118.992188 107.710938 121.570312 111.980469 125.746094 113.234375 C 124.832031 117.304688 123.417969 122.242188 121.316406 126.480469 " clip-rule="nonzero"/></clipPath><clipPath id="98c60e25d6"><path d="M 99.175781 95.234375 L 98.183594 150.46875 L 137.410156 151.175781 L 138.40625 95.941406 Z M 99.175781 95.234375 " clip-rule="nonzero"/></clipPath><clipPath id="73033d450a"><path d="M 60.382812 101.441406 L 116.414062 101.441406 L 116.414062 127.191406 L 60.382812 127.191406 Z M 60.382812 101.441406 " clip-rule="nonzero"/></clipPath><clipPath id="427a6405f3"><path d="M 85.964844 116.332031 C 86.277344 114.398438 86.152344 112.367188 85.511719 110.375 C 83.339844 103.625 76.101562 99.914062 69.347656 102.085938 C 62.59375 104.257812 58.882812 111.488281 61.054688 118.238281 C 63.226562 124.984375 70.464844 128.695312 77.21875 126.527344 C 81.261719 125.226562 84.210938 122.113281 85.464844 118.375 C 90.648438 118.144531 96.089844 116.800781 100.363281 115.457031 C 102.214844 119.082031 106.46875 120.933594 110.46875 119.648438 C 114.910156 118.21875 117.351562 113.464844 115.921875 109.027344 C 114.492188 104.589844 109.734375 102.148438 105.292969 103.578125 C 101.070312 104.9375 98.660156 109.304688 99.660156 113.542969 C 95.679688 114.785156 90.691406 116.03125 85.964844 116.332031 Z M 85.964844 116.332031 " clip-rule="nonzero"/></clipPath><clipPath id="82d2743ec5"><path d="M 85.964844 116.332031 C 86.277344 114.398438 86.152344 112.367188 85.511719 110.375 C 83.339844 103.625 76.101562 99.914062 69.347656 102.085938 C 62.59375 104.257812 58.882812 111.488281 61.054688 118.238281 C 63.226562 124.984375 70.464844 128.695312 77.21875 126.527344 C 81.261719 125.226562 84.210938 122.113281 85.464844 118.375 C 90.648438 118.144531 96.089844 116.800781 100.363281 115.457031 C 102.214844 119.082031 106.46875 120.933594 110.46875 119.648438 C 114.910156 118.21875 117.351562 113.464844 115.921875 109.027344 C 114.492188 104.589844 109.734375 102.148438 105.292969 103.578125 C 101.070312 104.9375 98.660156 109.304688 99.660156 113.542969 C 95.679688 114.785156 90.691406 116.03125 85.964844 116.332031 " clip-rule="nonzero"/></clipPath><clipPath id="2a195c6e29"><path d="M 58.902344 98.863281 L 58.363281 128.6875 L 117.332031 129.75 L 117.871094 99.921875 Z M 58.902344 98.863281 " clip-rule="nonzero"/></clipPath><clipPath id="69396e29db"><path d="M 59.605469 55.820312 L 100.589844 55.820312 L 100.589844 105.761719 L 59.605469 105.761719 Z M 59.605469 55.820312 " clip-rule="nonzero"/></clipPath><clipPath id="3e48698421"><path d="M 77.085938 80.664062 C 78.917969 79.96875 80.617188 78.84375 82.023438 77.292969 C 86.785156 72.039062 86.382812 63.921875 81.125 59.160156 C 75.867188 54.402344 67.742188 54.804688 62.980469 60.058594 C 58.21875 65.3125 58.621094 73.429688 63.878906 78.191406 C 67.027344 81.039062 71.203125 82.039062 75.066406 81.253906 C 77.859375 85.625 81.742188 89.660156 85.042969 92.6875 C 82.828125 96.101562 83.351562 100.710938 86.464844 103.527344 C 89.921875 106.65625 95.261719 106.390625 98.394531 102.9375 C 101.527344 99.480469 101.261719 94.144531 97.804688 91.015625 C 94.515625 88.039062 89.527344 88.132812 86.351562 91.125 C 83.28125 88.296875 79.710938 84.605469 77.085938 80.664062 Z M 77.085938 80.664062 " clip-rule="nonzero"/></clipPath><clipPath id="a56370572e"><path d="M 77.085938 80.664062 C 78.917969 79.96875 80.617188 78.84375 82.023438 77.292969 C 86.785156 72.039062 86.382812 63.921875 81.125 59.160156 C 75.867188 54.402344 67.742188 54.804688 62.980469 60.058594 C 58.21875 65.3125 58.621094 73.429688 63.878906 78.191406 C 67.027344 81.039062 71.203125 82.039062 75.066406 81.253906 C 77.859375 85.625 81.742188 89.660156 85.042969 92.6875 C 82.828125 96.101562 83.351562 100.710938 86.464844 103.527344 C 89.921875 106.65625 95.261719 106.390625 98.394531 102.9375 C 101.527344 99.480469 101.261719 94.144531 97.804688 91.015625 C 94.515625 88.039062 89.527344 88.132812 86.351562 91.125 C 83.28125 88.296875 79.710938 84.605469 77.085938 80.664062 " clip-rule="nonzero"/></clipPath><clipPath id="d0f01ad5a5"><path d="M 58.230469 53.621094 L 57.277344 106.640625 L 101.511719 107.4375 L 102.46875 54.417969 Z M 58.230469 53.621094 " clip-rule="nonzero"/></clipPath><clipPath id="0d97292818"><path d="M 88.226562 32.339844 L 124.542969 32.339844 L 124.542969 84.9375 L 88.226562 84.9375 Z M 88.226562 32.339844 " clip-rule="nonzero"/></clipPath><clipPath id="7b181ee7e3"><path d="M 103.558594 55.148438 C 105.078125 56.382812 106.902344 57.292969 108.949219 57.734375 C 115.882812 59.226562 122.71875 54.820312 124.214844 47.890625 C 125.707031 40.960938 121.296875 34.128906 114.363281 32.636719 C 107.429688 31.140625 100.59375 35.550781 99.097656 42.480469 C 98.203125 46.628906 99.425781 50.738281 102.039062 53.695312 C 99.644531 58.292969 98.089844 63.675781 97.117188 68.042969 C 93.050781 67.832031 89.320312 70.589844 88.433594 74.695312 C 87.449219 79.25 90.351562 83.742188 94.910156 84.722656 C 99.46875 85.707031 103.964844 82.808594 104.945312 78.253906 C 105.882812 73.917969 103.304688 69.648438 99.125 68.394531 C 100.039062 64.324219 101.457031 59.386719 103.558594 55.148438 Z M 103.558594 55.148438 " clip-rule="nonzero"/></clipPath><clipPath id="65d88cae85"><path d="M 103.558594 55.148438 C 105.078125 56.382812 106.902344 57.292969 108.949219 57.734375 C 115.882812 59.226562 122.71875 54.820312 124.210938 47.890625 C 125.707031 40.960938 121.296875 34.128906 114.363281 32.636719 C 107.429688 31.140625 100.59375 35.546875 99.097656 42.480469 C 98.203125 46.628906 99.425781 50.738281 102.039062 53.695312 C 99.644531 58.296875 98.089844 63.675781 97.117188 68.042969 C 93.050781 67.832031 89.320312 70.589844 88.433594 74.695312 C 87.449219 79.25 90.351562 83.742188 94.910156 84.722656 C 99.46875 85.707031 103.964844 82.808594 104.945312 78.253906 C 105.882812 73.917969 103.304688 69.644531 99.125 68.394531 C 100.039062 64.324219 101.457031 59.386719 103.558594 55.148438 " clip-rule="nonzero"/></clipPath><clipPath id="1f2b718eeb"><path d="M 87.460938 30.453125 L 86.464844 85.6875 L 125.695312 86.394531 L 126.691406 31.160156 Z M 87.460938 30.453125 " clip-rule="nonzero"/></clipPath><clipPath id="10bde4e2d7"><path d="M 132.585938 44 L 141.316406 44 L 141.316406 52.792969 L 132.585938 52.792969 Z M 132.585938 44 " clip-rule="nonzero"/></clipPath><clipPath id="95b3fca17f"><path d="M 141.308594 48.371094 C 141.308594 50.773438 139.363281 52.714844 136.964844 52.714844 C 134.5625 52.714844 132.617188 50.773438 132.617188 48.371094 C 132.617188 45.972656 134.5625 44.027344 136.964844 44.027344 C 139.363281 44.027344 141.308594 45.972656 141.308594 48.371094 Z M 141.308594 48.371094 " clip-rule="nonzero"/></clipPath><clipPath id="ae517544ea"><path d="M 141.308594 48.371094 C 141.308594 50.773438 139.363281 52.714844 136.964844 52.714844 C 134.5625 52.714844 132.617188 50.773438 132.617188 48.371094 C 132.617188 45.972656 134.5625 44.027344 136.964844 44.027344 C 139.363281 44.027344 141.308594 45.972656 141.308594 48.371094 " clip-rule="nonzero"/></clipPath><clipPath id="a95e611117"><path d="M 132.621094 43.871094 L 132.460938 52.714844 L 141.304688 52.871094 L 141.464844 44.03125 Z M 132.621094 43.871094 " clip-rule="nonzero"/></clipPath><clipPath id="aad38d2009"><path d="M 83.554688 44 L 92.289062 44 L 92.289062 52.792969 L 83.554688 52.792969 Z M 83.554688 44 " clip-rule="nonzero"/></clipPath><clipPath id="dfde4d5904"><path d="M 92.257812 48.371094 C 92.257812 50.773438 90.3125 52.714844 87.910156 52.714844 C 85.511719 52.714844 83.566406 50.773438 83.566406 48.371094 C 83.566406 45.972656 85.511719 44.027344 87.910156 44.027344 C 90.3125 44.027344 92.257812 45.972656 92.257812 48.371094 Z M 92.257812 48.371094 " clip-rule="nonzero"/></clipPath><clipPath id="5a875db612"><path d="M 92.257812 48.371094 C 92.257812 50.773438 90.3125 52.714844 87.910156 52.714844 C 85.511719 52.714844 83.566406 50.773438 83.566406 48.371094 C 83.566406 45.972656 85.511719 44.027344 87.910156 44.027344 C 90.3125 44.027344 92.257812 45.972656 92.257812 48.371094 " clip-rule="nonzero"/></clipPath><clipPath id="3a7ea225c7"><path d="M 83.566406 43.871094 L 83.40625 52.714844 L 92.253906 52.871094 L 92.414062 44.03125 Z M 83.566406 43.871094 " clip-rule="nonzero"/></clipPath><clipPath id="e74cd18e45"><path d="M 85.371094 128.835938 L 94.191406 128.835938 L 94.191406 137.648438 L 85.371094 137.648438 Z M 85.371094 128.835938 " clip-rule="nonzero"/></clipPath><clipPath id="848f8a7f26"><path d="M 94.121094 133.257812 C 94.121094 135.65625 92.175781 137.601562 89.773438 137.601562 C 87.375 137.601562 85.425781 135.65625 85.425781 133.257812 C 85.425781 130.859375 87.375 128.914062 89.773438 128.914062 C 92.175781 128.914062 94.121094 130.859375 94.121094 133.257812 Z M 94.121094 133.257812 " clip-rule="nonzero"/></clipPath><clipPath id="fcb3d95282"><path d="M 94.121094 133.257812 C 94.121094 135.65625 92.175781 137.601562 89.773438 137.601562 C 87.375 137.601562 85.425781 135.65625 85.425781 133.257812 C 85.425781 130.859375 87.375 128.914062 89.773438 128.914062 C 92.175781 128.914062 94.121094 130.859375 94.121094 133.257812 " clip-rule="nonzero"/></clipPath><clipPath id="ac18305bdf"><path d="M 85.429688 128.757812 L 85.269531 137.597656 L 94.117188 137.757812 L 94.277344 128.914062 Z M 85.429688 128.757812 " clip-rule="nonzero"/></clipPath><clipPath id="8b9ae73950"><path d="M 130.683594 128.835938 L 139.503906 128.835938 L 139.503906 137.648438 L 130.683594 137.648438 Z M 130.683594 128.835938 " clip-rule="nonzero"/></clipPath><clipPath id="b84e4b5d78"><path d="M 139.445312 133.257812 C 139.445312 135.65625 137.5 137.601562 135.101562 137.601562 C 132.699219 137.601562 130.753906 135.65625 130.753906 133.257812 C 130.753906 130.859375 132.699219 128.914062 135.101562 128.914062 C 137.5 128.914062 139.445312 130.859375 139.445312 133.257812 Z M 139.445312 133.257812 " clip-rule="nonzero"/></clipPath><clipPath id="418f3bc93a"><path d="M 139.445312 133.257812 C 139.445312 135.65625 137.5 137.601562 135.101562 137.601562 C 132.699219 137.601562 130.753906 135.65625 130.753906 133.257812 C 130.753906 130.859375 132.699219 128.914062 135.101562 128.914062 C 137.5 128.914062 139.445312 130.859375 139.445312 133.257812 " clip-rule="nonzero"/></clipPath><clipPath id="e2ebfe2a69"><path d="M 130.757812 128.757812 L 130.597656 137.597656 L 139.445312 137.757812 L 139.601562 128.914062 Z M 130.757812 128.757812 " clip-rule="nonzero"/></clipPath><clipPath id="a3ba2e98e4"><path d="M 61.59375 86.40625 L 70.328125 86.40625 L 70.328125 95.222656 L 61.59375 95.222656 Z M 61.59375 86.40625 " clip-rule="nonzero"/></clipPath><clipPath id="55f96d6859"><path d="M 70.289062 90.816406 C 70.289062 93.214844 68.34375 95.160156 65.945312 95.160156 C 63.542969 95.160156 61.597656 93.214844 61.597656 90.816406 C 61.597656 88.414062 63.542969 86.472656 65.945312 86.472656 C 68.34375 86.472656 70.289062 88.414062 70.289062 90.816406 Z M 70.289062 90.816406 " clip-rule="nonzero"/></clipPath><clipPath id="2773fd5263"><path d="M 70.289062 90.816406 C 70.289062 93.214844 68.34375 95.160156 65.945312 95.160156 C 63.542969 95.160156 61.597656 93.214844 61.597656 90.816406 C 61.597656 88.414062 63.542969 86.472656 65.945312 86.472656 C 68.34375 86.472656 70.289062 88.414062 70.289062 90.816406 " clip-rule="nonzero"/></clipPath><clipPath id="3367cede10"><path d="M 61.601562 86.3125 L 61.441406 95.15625 L 70.289062 95.316406 L 70.449219 86.472656 Z M 61.601562 86.3125 " clip-rule="nonzero"/></clipPath><clipPath id="fc6036772a"><path d="M 154.546875 86.40625 L 163.28125 86.40625 L 163.28125 95.222656 L 154.546875 95.222656 Z M 154.546875 86.40625 " clip-rule="nonzero"/></clipPath><clipPath id="8c61eb406e"><path d="M 163.277344 90.816406 C 163.277344 93.214844 161.332031 95.160156 158.929688 95.160156 C 156.53125 95.160156 154.582031 93.214844 154.582031 90.816406 C 154.582031 88.414062 156.53125 86.472656 158.929688 86.472656 C 161.332031 86.472656 163.277344 88.414062 163.277344 90.816406 Z M 163.277344 90.816406 " clip-rule="nonzero"/></clipPath><clipPath id="387913656f"><path d="M 163.277344 90.816406 C 163.277344 93.214844 161.332031 95.160156 158.929688 95.160156 C 156.53125 95.160156 154.582031 93.214844 154.582031 90.816406 C 154.582031 88.414062 156.53125 86.472656 158.929688 86.472656 C 161.332031 86.472656 163.277344 88.414062 163.277344 90.816406 " clip-rule="nonzero"/></clipPath><clipPath id="00cdc1468b"><path d="M 154.585938 86.3125 L 154.425781 95.15625 L 163.273438 95.316406 L 163.433594 86.472656 Z M 154.585938 86.3125 " clip-rule="nonzero"/></clipPath></defs><g transform="matrix(1, 0, 0, 1, 42, 159)"><g clip-path="url(#905bb39963)"><g fill="#022179" fill-opacity="1"><g transform="translate(1.299182, 16.981326)"><g><path d="M 6.265625 0 L 6.265625 -9.546875 L 1.3125 -9.546875 L 1.3125 -11.84375 L 13.53125 -11.84375 L 13.53125 -9.546875 L 8.578125 -9.546875 L 8.578125 0 Z M 6.265625 0 "/></g></g></g><g fill="#022179" fill-opacity="1"><g transform="translate(17.186584, 16.981326)"><g><path d="M 1.3125 0 L 1.3125 -11.84375 L 3.625 -11.84375 L 3.625 -7.078125 L 11.640625 -7.078125 L 11.640625 -11.84375 L 13.9375 -11.84375 L 13.9375 0 L 11.640625 0 L 11.640625 -4.765625 L 3.625 -4.765625 L 3.625 0 Z M 1.3125 0 "/></g></g></g><g fill="#022179" fill-opacity="1"><g transform="translate(33.485035, 16.981326)"><g><path d="M 1.3125 0 L 1.3125 -2.296875 L 4.6875 -2.296875 L 4.6875 -9.546875 L 1.3125 -9.546875 L 1.3125 -11.84375 L 10.359375 -11.84375 L 10.359375 -9.546875 L 6.984375 -9.546875 L 6.984375 -2.296875 L 10.359375 -2.296875 L 10.359375 0 Z M 1.3125 0 "/></g></g></g><g fill="#022179" fill-opacity="1"><g transform="translate(46.207352, 16.981326)"><g><path d="M 1.3125 0 L 1.3125 -9.546875 L 3.625 -11.84375 L 11.640625 -11.84375 L 13.9375 -9.546875 L 13.9375 0 L 11.640625 0 L 11.640625 -9.546875 L 3.625 -9.546875 L 3.625 0 Z M 1.3125 0 "/></g></g></g><g fill="#022179" fill-opacity="1"><g transform="translate(62.505803, 16.981326)"><g><path d="M 1.3125 0 L 1.3125 -11.84375 L 3.625 -11.84375 L 3.625 -7.078125 L 10 -7.078125 L 10 -11.84375 L 12.296875 -11.84375 L 12.296875 -7.078125 L 11.140625 -5.921875 L 12.296875 -4.765625 L 12.296875 0 L 10 0 L 10 -4.765625 L 3.625 -4.765625 L 3.625 0 Z M 1.3125 0 "/></g></g></g><g fill="#022179" fill-opacity="1"><g transform="translate(77.160056, 16.981326)"><g><path d="M 6.265625 0 L 6.265625 -9.546875 L 1.3125 -9.546875 L 1.3125 -11.84375 L 13.53125 -11.84375 L 13.53125 -9.546875 L 8.578125 -9.546875 L 8.578125 0 Z M 6.265625 0 "/></g></g></g><g fill="#022179" fill-opacity="1"><g transform="translate(93.047458, 16.981326)"><g><path d="M 3.625 0 L 1.3125 -2.296875 L 1.3125 -9.546875 L 3.625 -11.84375 L 13.90625 -11.84375 L 13.90625 -9.546875 L 3.625 -9.546875 L 3.625 -7.078125 L 11.234375 -7.078125 L 11.234375 -4.765625 L 3.625 -4.765625 L 3.625 -2.296875 L 13.90625 -2.296875 L 13.90625 0 Z M 3.625 0 "/></g></g></g><g fill="#022179" fill-opacity="1"><g transform="translate(109.304809, 16.981326)"><g><path d="M 3.625 0 L 1.3125 -2.296875 L 1.3125 -9.546875 L 3.625 -11.84375 L 12.671875 -11.84375 L 12.671875 -9.546875 L 3.625 -9.546875 L 3.625 -2.296875 L 12.671875 -2.296875 L 12.671875 0 Z M 3.625 0 "/></g></g></g><g fill="#022179" fill-opacity="1"><g transform="translate(124.329006, 16.981326)"><g><path d="M 1.3125 0 L 1.3125 -11.84375 L 3.625 -11.84375 L 3.625 -7.078125 L 11.640625 -7.078125 L 11.640625 -11.84375 L 13.9375 -11.84375 L 13.9375 0 L 11.640625 0 L 11.640625 -4.765625 L 3.625 -4.765625 L 3.625 0 Z M 1.3125 0 "/></g></g></g></g></g><g transform="matrix(1, 0, 0, 1, 86, 184)"><g clip-path="url(#fb2d240c4a)"><g fill="#a42593" fill-opacity="1"><g transform="translate(0.800954, 6.212093)"><g><path d="M 0.484375 0 L 0.484375 -3.5 L 1.328125 -4.34375 L 4.265625 -4.34375 L 5.109375 -3.5 L 5.109375 0 L 4.265625 0 L 4.265625 -1.75 L 1.328125 -1.75 L 1.328125 0 Z M 1.328125 -2.59375 L 4.265625 -2.59375 L 4.265625 -3.5 L 1.328125 -3.5 Z M 1.328125 -2.59375 "/></g></g></g><g fill="#a42593" fill-opacity="1"><g transform="translate(8.410453, 6.212093)"><g><path d="M 1.328125 0 L 0.484375 -0.84375 L 0.484375 -3.5 L 1.328125 -4.34375 L 4.640625 -4.34375 L 4.640625 -3.5 L 1.328125 -3.5 L 1.328125 -0.84375 L 4.640625 -0.84375 L 4.640625 0 Z M 1.328125 0 "/></g></g></g><g fill="#a42593" fill-opacity="1"><g transform="translate(15.552955, 6.212093)"><g><path d="M 0.484375 0 L 0.484375 -3.5 L 1.328125 -4.34375 L 4.265625 -4.34375 L 5.109375 -3.5 L 5.109375 0 L 4.265625 0 L 4.265625 -1.75 L 1.328125 -1.75 L 1.328125 0 Z M 1.328125 -2.59375 L 4.265625 -2.59375 L 4.265625 -3.5 L 1.328125 -3.5 Z M 1.328125 -2.59375 "/></g></g></g><g fill="#a42593" fill-opacity="1"><g transform="translate(23.162453, 6.212093)"><g><path d="M 1.328125 0 L 0.484375 -0.84375 L 0.484375 -3.5 L 1.328125 -4.34375 L 4.109375 -4.34375 L 4.109375 -5.1875 L 4.953125 -5.1875 L 4.953125 -0.84375 L 4.109375 0 Z M 1.328125 -0.84375 L 4.109375 -0.84375 L 4.109375 -3.5 L 1.328125 -3.5 Z M 1.328125 -0.84375 "/></g></g></g><g fill="#a42593" fill-opacity="1"><g transform="translate(30.62131, 6.212093)"><g><path d="M 1.328125 0 L 0.484375 -0.84375 L 0.484375 -3.5 L 1.328125 -4.34375 L 5.09375 -4.34375 L 5.09375 -3.5 L 1.328125 -3.5 L 1.328125 -2.59375 L 4.109375 -2.59375 L 4.109375 -1.75 L 1.328125 -1.75 L 1.328125 -0.84375 L 5.09375 -0.84375 L 5.09375 0 Z M 1.328125 0 "/></g></g></g><g fill="#a42593" fill-opacity="1"><g transform="translate(38.215742, 6.212093)"><g><path d="M 0.484375 0 L 0.484375 -3.5 L 1.328125 -4.34375 L 4.921875 -4.34375 L 5.765625 -3.5 L 5.765625 0 L 4.921875 0 L 4.921875 -3.5 L 3.546875 -3.5 L 3.546875 -1.15625 L 2.703125 -1.15625 L 2.703125 -3.5 L 1.328125 -3.5 L 1.328125 0 Z M 0.484375 0 "/></g></g></g><g fill="#a42593" fill-opacity="1"><g transform="translate(46.48054, 6.212093)"><g><path d="M 1.46875 0 L 1.46875 -0.84375 L 4.265625 -0.84375 L 4.265625 -1.75 L 1.328125 -1.75 L 0.484375 -2.59375 L 0.484375 -4.34375 L 1.328125 -4.34375 L 1.328125 -2.59375 L 4.265625 -2.59375 L 4.265625 -4.34375 L 5.109375 -4.34375 L 5.109375 -0.84375 L 4.265625 0 Z M 1.46875 0 "/></g></g></g></g></g><g clip-path="url(#37712a8031)"><g clip-path="url(#7d164ab7ca)"><g clip-path="url(#05a8b97eda)"><g clip-path="url(#00425f6604)"><path fill="url(#7158333edc)" d="M 108.476562 53.429688 L 107.996094 80.179688 L 164.472656 81.195312 L 164.957031 54.445312 Z M 108.476562 53.429688 " fill-rule="nonzero"/></g></g></g></g><g clip-path="url(#f16d59b806)"><g clip-path="url(#8de08df5f4)"><g clip-path="url(#22792f8113)"><g clip-path="url(#314a367ea3)"><path fill="url(#7158333edc)" d="M 124.296875 75.128906 L 123.382812 125.792969 L 165.257812 126.546875 L 166.167969 75.882812 Z M 124.296875 75.128906 " fill-rule="nonzero"/></g></g></g></g><g clip-path="url(#249891ce13)"><g clip-path="url(#031a5a7beb)"><g clip-path="url(#9da076febd)"><g clip-path="url(#98c60e25d6)"><path fill="url(#7158333edc)" d="M 100.34375 96.039062 L 99.382812 149.261719 L 136.636719 149.933594 L 137.59375 96.707031 Z M 100.34375 96.039062 " fill-rule="nonzero"/></g></g></g></g><g clip-path="url(#73033d450a)"><g clip-path="url(#427a6405f3)"><g clip-path="url(#82d2743ec5)"><g clip-path="url(#2a195c6e29)"><path fill="url(#7158333edc)" d="M 60.398438 100.4375 L 59.917969 127.183594 L 116.394531 128.199219 L 116.878906 101.453125 Z M 60.398438 100.4375 " fill-rule="nonzero"/></g></g></g></g><g clip-path="url(#69396e29db)"><g clip-path="url(#3e48698421)"><g clip-path="url(#a56370572e)"><g clip-path="url(#d0f01ad5a5)"><path fill="url(#7158333edc)" d="M 59.617188 55.082031 L 58.703125 105.746094 L 100.578125 106.5 L 101.488281 55.835938 Z M 59.617188 55.082031 " fill-rule="nonzero"/></g></g></g></g><g clip-path="url(#0d97292818)"><g clip-path="url(#7b181ee7e3)"><g clip-path="url(#65d88cae85)"><g clip-path="url(#1f2b718eeb)"><path fill="url(#7158333edc)" d="M 88.238281 31.6875 L 87.277344 84.921875 L 124.53125 85.589844 L 125.488281 32.359375 Z M 88.238281 31.6875 " fill-rule="nonzero"/></g></g></g></g><g clip-path="url(#10bde4e2d7)"><g clip-path="url(#95b3fca17f)"><g clip-path="url(#ae517544ea)"><g clip-path="url(#a95e611117)"><path fill="url(#7158333edc)" d="M 132.621094 43.871094 L 132.460938 52.714844 L 141.304688 52.871094 L 141.464844 44.03125 Z M 132.621094 43.871094 " fill-rule="nonzero"/></g></g></g></g><g clip-path="url(#aad38d2009)"><g clip-path="url(#dfde4d5904)"><g clip-path="url(#5a875db612)"><g clip-path="url(#3a7ea225c7)"><path fill="url(#7158333edc)" d="M 83.566406 43.871094 L 83.40625 52.714844 L 92.253906 52.871094 L 92.414062 44.03125 Z M 83.566406 43.871094 " fill-rule="nonzero"/></g></g></g></g><g clip-path="url(#e74cd18e45)"><g clip-path="url(#848f8a7f26)"><g clip-path="url(#fcb3d95282)"><g clip-path="url(#ac18305bdf)"><path fill="url(#7158333edc)" d="M 85.429688 128.757812 L 85.269531 137.597656 L 94.117188 137.757812 L 94.277344 128.917969 Z M 85.429688 128.757812 " fill-rule="nonzero"/></g></g></g></g><g clip-path="url(#8b9ae73950)"><g clip-path="url(#b84e4b5d78)"><g clip-path="url(#418f3bc93a)"><g clip-path="url(#e2ebfe2a69)"><path fill="url(#7158333edc)" d="M 130.757812 128.757812 L 130.597656 137.597656 L 139.445312 137.757812 L 139.601562 128.917969 Z M 130.757812 128.757812 " fill-rule="nonzero"/></g></g></g></g><g clip-path="url(#a3ba2e98e4)"><g clip-path="url(#55f96d6859)"><g clip-path="url(#2773fd5263)"><g clip-path="url(#3367cede10)"><path fill="url(#7158333edc)" d="M 61.601562 86.316406 L 61.441406 95.15625 L 70.289062 95.316406 L 70.445312 86.472656 Z M 61.601562 86.316406 " fill-rule="nonzero"/></g></g></g></g><g clip-path="url(#fc6036772a)"><g clip-path="url(#8c61eb406e)"><g clip-path="url(#387913656f)"><g clip-path="url(#00cdc1468b)"><path fill="url(#7158333edc)" d="M 154.585938 86.316406 L 154.425781 95.15625 L 163.273438 95.316406 L 163.433594 86.472656 Z M 154.585938 86.316406 " fill-rule="nonzero"/></g></g></g></g></svg>